# Blender v2.78 (sub 0) OBJ File: 'shield.blend'
# www.blender.org
o Cube.001
v 0.790640 -0.494150 -0.001561
v -0.790640 -0.494150 -0.001561
v 0.790640 0.494150 -0.001561
v -0.790640 0.494150 -0.001561
v -0.249780 0.156112 -0.336449
v -0.249780 -0.156112 -0.336449
v 0.249779 0.156112 -0.336449
v 0.249779 -0.156112 -0.336449
v -0.632329 -0.395205 -0.213531
v -0.632331 0.395207 -0.213530
v 0.632331 0.395207 -0.213530
v 0.632331 -0.395207 -0.213530
v -0.000000 0.190002 -0.341219
v -0.000000 -0.190002 -0.341219
v -0.000000 0.698834 -0.001559
v 0.000000 -0.698834 -0.001559
v -0.000000 -0.524099 -0.235108
v -0.000000 0.524101 -0.235107
v -0.304004 -0.000000 -0.341219
v 0.304003 0.000000 -0.341219
v -1.118135 0.000000 -0.001559
v 1.118135 0.000000 -0.001559
v 0.838561 0.000000 -0.235107
v -0.838559 -0.000000 -0.235108
v -0.000000 -0.000000 -0.354478
vn 0.0360 0.0576 -0.9977
vn -0.6140 0.3852 -0.6890
vn 0.6140 -0.3852 -0.6890
vn 0.1967 0.8027 -0.5630
vn 0.1967 -0.8027 -0.5630
vn -0.0871 -0.3190 -0.9438
vn 0.0871 0.3190 -0.9438
vn 0.2046 -0.1429 -0.9684
vn 0.2046 0.1429 -0.9684
vn -0.2046 0.1429 -0.9684
vn -0.0871 0.3190 -0.9438
vn -0.1967 0.8027 -0.5630
vn 0.6140 0.3852 -0.6890
vn -0.0360 0.0576 -0.9977
vn -0.0360 -0.0576 -0.9977
vn 0.0871 -0.3190 -0.9438
vn -0.2046 -0.1429 -0.9684
vn -0.6140 -0.3852 -0.6890
vn -0.1967 -0.8027 -0.5630
vn 0.0360 -0.0576 -0.9977
vn -0.0000 -0.0000 1.0000
s off
f 25//1 13//1 7//1 20//1
f 4//2 10//2 24//2 21//2
f 1//3 12//3 23//3 22//3
f 3//4 11//4 18//4 15//4
f 12//5 1//5 16//5 17//5
f 14//6 17//6 9//6 6//6
f 13//7 18//7 11//7 7//7
f 20//8 23//8 12//8 8//8
f 7//9 11//9 23//9 20//9
f 19//10 24//10 10//10 5//10
f 5//11 10//11 18//11 13//11
f 10//12 4//12 15//12 18//12
f 11//13 3//13 22//13 23//13
f 19//14 5//14 13//14 25//14
f 6//15 19//15 25//15 14//15
f 8//16 12//16 17//16 14//16
f 6//17 9//17 24//17 19//17
f 9//18 2//18 21//18 24//18
f 2//19 9//19 17//19 16//19
f 14//20 25//20 20//20 8//20
f 16//21 1//21 22//21 3//21 15//21 4//21 21//21 2//21
