# Blender v2.78 (sub 0) OBJ File: 'wall.blend'
# www.blender.org
mtllib wall.mtl
o Circle.003
v 0.000000 6.000001 0.400000
v -1.170541 5.884713 0.400000
v -2.296100 5.543278 0.400000
v -3.333421 4.988819 0.400000
v -4.242641 4.242641 0.400000
v -4.988819 3.333421 0.400000
v -5.543279 2.296100 0.400000
v -5.884713 1.170541 0.400000
v -6.000001 -0.000002 0.400000
v -5.884712 -1.170545 0.400000
v -5.543277 -2.296103 0.400000
v -4.988816 -3.333425 0.400000
v -4.242639 -4.242644 0.400000
v -3.333418 -4.988821 0.400000
v -2.296096 -5.543280 0.400000
v -1.170537 -5.884713 0.400000
v 0.000006 -6.000001 0.400000
v 0.000000 6.000001 -0.400000
v -1.170541 5.884713 -0.400000
v -2.296100 5.543278 -0.400000
v -3.333421 4.988819 -0.400000
v -4.242641 4.242641 -0.400000
v -4.988819 3.333421 -0.400000
v -5.543279 2.296100 -0.400000
v -5.884713 1.170541 -0.400000
v -6.000001 -0.000002 -0.400000
v -5.884712 -1.170545 -0.400000
v -5.543277 -2.296103 -0.400000
v -4.988816 -3.333425 -0.400000
v -4.242639 -4.242644 -0.400000
v -3.333418 -4.988821 -0.400000
v -2.296096 -5.543280 -0.400000
v -1.170537 -5.884713 -0.400000
v 0.000006 -6.000001 -0.400000
v 0.000000 6.000001 0.000000
v 0.000006 -6.000001 0.000000
vt 0.7269 0.9821
vt 0.7269 0.0179
vt 0.9014 0.0085
vt 0.9014 0.9915
vt 0.5592 0.9541
vt 0.5592 0.0459
vt 0.4045 0.9087
vt 0.4046 0.0913
vt 0.2690 0.8476
vt 0.2690 0.1524
vt 0.1578 0.7731
vt 0.1578 0.2269
vt 0.0752 0.6881
vt 0.0752 0.3119
vt 0.0243 0.5959
vt 0.0243 0.4041
vt 0.0071 0.5000
vt 0.9908 0.0085
vt 0.9908 0.9915
vt 0.7269 0.9821
vt 0.9014 0.9915
vt 0.9014 0.0085
vt 0.7269 0.0179
vt 0.5592 0.9541
vt 0.5592 0.0459
vt 0.4045 0.9087
vt 0.4046 0.0913
vt 0.2690 0.8476
vt 0.2690 0.1524
vt 0.1578 0.7731
vt 0.1578 0.2269
vt 0.0752 0.6881
vt 0.0752 0.3119
vt 0.0243 0.5959
vt 0.0243 0.4041
vt 0.0071 0.5000
vn -0.0000 0.0000 1.0000
vn 1.0000 0.0000 0.0000
vn -0.0000 0.0000 -1.0000
usemtl texture
s off
f 2/1/1 16/2/1 17/3/1 1/4/1
f 3/5/1 15/6/1 16/2/1 2/1/1
f 4/7/1 14/8/1 15/6/1 3/5/1
f 5/9/1 13/10/1 14/8/1 4/7/1
f 6/11/1 12/12/1 13/10/1 5/9/1
f 7/13/1 11/14/1 12/12/1 6/11/1
f 8/15/1 10/16/1 11/14/1 7/13/1
f 9/17/1 10/16/1 8/15/1
f 1/4/2 17/3/2 36/18/2 35/19/2
f 19/20/3 18/21/3 34/22/3 33/23/3
f 20/24/3 19/20/3 33/23/3 32/25/3
f 21/26/3 20/24/3 32/25/3 31/27/3
f 22/28/3 21/26/3 31/27/3 30/29/3
f 23/30/3 22/28/3 30/29/3 29/31/3
f 24/32/3 23/30/3 29/31/3 28/33/3
f 25/34/3 24/32/3 28/33/3 27/35/3
f 26/36/3 25/34/3 27/35/3
f 18/21/2 35/19/2 36/18/2 34/22/2
